<svg width="40" height="41" viewBox="0 0 40 41" fill="none" xmlns="http://www.w3.org/2000/svg">
<g clip-path="url(#clip0_760_1190)">
<path d="M17.786 0.583687C17.6225 0.618073 16.0475 1.0307 14.2942 1.4949C9.39074 2.80154 7.0579 3.3517 3.75924 4.00502C2.08019 4.33168 0.698318 4.58957 0.6686 4.58957C0.638882 4.58957 0.624023 4.70992 0.624023 4.84746C0.624023 5.29447 1.63442 5.34605 6.41897 5.13974C11.1144 4.93343 13.0906 4.72712 16.4933 4.0566C17.4888 3.85029 18.4101 3.74713 18.5289 3.79871C18.6627 3.85029 18.7518 4.12537 18.7518 4.50361V5.10535H19.6433H20.5349V3.67836C20.5349 1.9591 20.2525 1.28859 19.3016 0.807192C18.6924 0.480532 18.3655 0.428954 17.786 0.583687Z" fill="#42F0B6"/>
<path d="M0.118871 7.18568C0 7.39199 -0.0297177 11.6901 0.0297177 23.3811L0.104012 39.3187L0.594354 39.8689L1.06984 40.4362L16.3447 40.4878C27.7266 40.5222 31.8276 40.4878 32.4666 40.3331C33.477 40.0924 34.4576 39.4219 34.9926 38.5966C35.7355 37.4791 35.8395 36.8086 35.8395 33.1122V29.708L32.3923 29.6565C29.6434 29.6049 28.7964 29.5361 28.2912 29.3126C26.7311 28.6421 25.8098 27.4042 25.2749 25.3239C24.5914 22.6762 25.7058 19.9254 27.9792 18.636L28.8113 18.1718H32.3328H35.8544L35.8098 14.1659C35.7652 10.6242 35.7355 10.1084 35.4829 9.50668C35.0966 8.59547 34.3982 7.839 33.5215 7.32322L32.7935 6.91059H16.5379C1.75334 6.91059 0.282318 6.92779 0.118871 7.18568Z" fill="#42F0B6"/>
<path d="M30.1931 19.891C28.8112 20.0114 28.2912 20.2349 27.5631 21.1289C26.2555 22.7106 26.315 25.4614 27.6968 26.9572C28.6181 27.9544 28.6775 27.9716 34.205 27.9716H39.2719L39.6285 27.5418C39.9999 27.1291 39.9999 27.0947 39.9999 23.9657V20.8022L39.6136 20.338C39.1678 19.8395 39.5245 19.8738 34.205 19.8223C32.6894 19.8223 30.8915 19.8395 30.1931 19.891ZM31.6047 21.765C32.2436 22.1777 32.6002 23.0545 32.5259 24.0688C32.4517 25.0488 32.095 25.685 31.3075 26.1835C29.5542 27.3354 27.5037 25.0144 28.306 22.7794C28.7964 21.4212 30.3566 20.9398 31.6047 21.765Z" fill="#42F0B6"/>
</g>
<defs>
<clipPath id="clip0_760_1190">
<rect width="40" height="40" fill="white" transform="matrix(1 0 0 -1 0 40.5)"/>
</clipPath>
</defs>
</svg>
