<svg width="360" height="64" viewBox="0 0 360 64" fill="none" xmlns="http://www.w3.org/2000/svg">
<g clip-path="url(#clip0_509_1355)">
<path d="M82.786 12.0837C82.6225 12.1181 81.0475 12.5307 79.2941 12.9949C74.3907 14.3015 72.0579 14.8517 68.7592 15.505C67.0802 15.8317 65.6983 16.0896 65.6686 16.0896C65.6389 16.0896 65.624 16.2099 65.624 16.3475C65.624 16.7945 66.6344 16.8461 71.4189 16.6397C76.1143 16.4334 78.0906 16.2271 81.4932 15.5566C82.4888 15.3503 83.41 15.2471 83.5289 15.2987C83.6626 15.3503 83.7518 15.6254 83.7518 16.0036V16.6054H84.6433H85.5348V15.1784C85.5348 13.4591 85.2525 12.7886 84.3016 12.3072C83.6923 11.9805 83.3654 11.929 82.786 12.0837Z" fill="#085E41"/>
<path d="M65.1189 18.6857C65 18.892 64.9703 23.1901 65.0297 34.8811L65.104 50.8187L65.5944 51.3689L66.0698 51.9362L81.3447 51.9878C92.7266 52.0222 96.8276 51.9878 97.4666 51.8331C98.477 51.5924 99.4576 50.9219 99.9926 50.0966C100.736 48.9791 100.84 48.3086 100.84 44.6122V41.208L97.3923 41.1565C94.6434 41.1049 93.7964 41.0361 93.2912 40.8126C91.7311 40.1421 90.8098 38.9042 90.2749 36.8239C89.5914 34.1762 90.7058 31.4254 92.9792 30.136L93.8113 29.6718H97.3328H100.854L100.81 25.6659C100.765 22.1242 100.736 21.6084 100.483 21.0067C100.097 20.0955 99.3982 19.339 98.5215 18.8232L97.7935 18.4106H81.5379C66.7533 18.4106 65.2823 18.4278 65.1189 18.6857Z" fill="#085E41"/>
<path d="M95.1931 31.391C93.8112 31.5114 93.2911 31.7349 92.5631 32.6289C91.2555 34.2106 91.3149 36.9614 92.6968 38.4572C93.618 39.4544 93.6775 39.4716 99.205 39.4716H104.272L104.628 39.0418C105 38.6291 105 38.5947 105 35.4657V32.3022L104.614 31.838C104.168 31.3395 104.524 31.3738 99.205 31.3223C97.6894 31.3223 95.8914 31.3395 95.1931 31.391ZM96.6047 33.265C97.2436 33.6777 97.6002 34.5545 97.5259 35.5688C97.4516 36.5488 97.095 37.185 96.3075 37.6835C94.5542 38.8354 92.5036 36.5144 93.306 34.2794C93.7963 32.9212 95.3565 32.4398 96.6047 33.265Z" fill="#085E41"/>
</g>
<path d="M175.409 13.7199C169.5 17.237 166.4 23.6458 166.4 32.0086C166.4 38.1048 167.277 41.2311 170.378 45.5297C173.303 49.7502 176.287 51.3915 181.552 51.7823C185.764 52.0167 186.525 51.8604 189.45 49.8284C192.199 47.9526 192.667 47.3273 192.843 45.1389C193.018 43.0287 192.784 42.5598 191.614 42.169C190.737 41.8564 189.333 42.2471 187.929 43.185C184.594 45.4516 182.254 45.9205 179.387 44.9045C175.994 43.654 172.191 38.3393 171.606 34.197C170.846 28.0226 174.531 20.9885 179.329 19.1909C182.429 18.0186 183.307 18.0967 186.525 19.9725C189.684 21.7701 191.673 21.6919 192.609 19.738C193.486 17.7841 192.55 15.9865 189.45 13.7981C185.94 11.4534 179.212 11.3752 175.409 13.7199Z" fill="#085E41"/>
<path d="M117.14 13.8763C117.023 14.4234 116.964 23.0988 117.023 33.181L117.198 51.5478L118.837 51.7823C121.118 52.1731 122.171 50.6881 122.171 47.3273C122.23 44.67 122.464 44.2792 127.846 39.4335C135.042 32.9465 136.446 30.2892 136.095 23.8022C135.802 18.5657 134.398 15.8302 131.122 13.9544C128.607 12.4694 117.549 12.4694 117.14 13.8763ZM128.08 19.8943C129.66 20.5196 130.42 21.3793 130.947 23.0988C131.649 25.2871 131.59 25.5998 129.718 28.1789C128.607 29.7421 126.5 32.1649 124.979 33.6499L122.171 36.3072V28.2571C122.171 23.8022 122.347 19.8943 122.581 19.6599C123.107 18.8783 125.681 19.0346 128.08 19.8943Z" fill="#085E41"/>
<path d="M142.764 13.7981C141.828 15.0486 141.77 50.7662 142.706 51.5478C143.7 52.4075 159.204 51.9386 160.023 51.0007C160.432 50.5318 160.783 49.3594 160.783 48.3434C160.783 46.0768 159.906 45.7642 152.593 45.4516L147.035 45.2953V40.6059V35.9165L152.885 35.5257C158.677 35.1349 158.736 35.1349 158.911 33.1028C159.204 30.0547 157.975 29.3513 152.242 29.1168L147.035 28.8824V24.193V19.5035L153.119 19.2691C156.571 19.1909 159.613 18.6438 160.023 18.1749C160.491 17.7059 160.783 16.3773 160.666 15.2831L160.491 13.251L152.008 13.0165C145.865 12.8602 143.291 13.0947 142.764 13.7981Z" fill="#085E41"/>
<path d="M200.448 13.72C199.512 14.4234 199.395 15.9084 199.395 27.3974C199.395 41.7001 199.922 44.2793 203.432 48.2652C209.282 54.8304 219.696 52.2512 223.206 43.4195C224.434 40.2151 224.551 39.0428 224.551 27.3192C224.551 14.5015 224.259 12.8602 222.211 12.8602C219.813 12.9384 219.579 13.9544 219.286 26.694C218.994 37.9486 218.877 39.2772 217.648 41.5438C215.074 46.4676 209.165 46.4676 206.181 41.7001C204.719 39.3554 204.66 39.0428 204.66 27.3192C204.66 17.4715 204.485 15.1268 203.724 14.1107C202.671 12.7039 201.852 12.5476 200.448 13.72Z" fill="#085E41"/>
<path d="M231.396 13.3292C230.636 14.3452 230.928 49.9847 231.689 51.0007C232.742 52.4075 234.965 52.0949 235.667 50.4536C235.96 49.5939 236.252 43.9666 236.252 37.7922V26.694L238.943 31.3052C240.464 33.8062 243.038 38.5738 244.794 41.7782C246.49 44.9826 248.421 48.4215 249.123 49.4376C250.585 51.4697 252.984 51.7041 253.627 49.8284C253.862 49.0468 253.979 40.5277 253.803 30.8363L253.51 13.251L251.814 13.0165C250.878 12.8602 249.825 13.1728 249.474 13.6418C249.123 14.1107 248.713 18.8783 248.538 25.4435L248.245 36.3854L241.81 24.8182C236.252 14.8141 235.141 13.251 233.619 13.0165C232.625 12.8602 231.63 13.0165 231.396 13.3292Z" fill="#085E41"/>
<path d="M261.467 13.9544C260.999 14.6578 260.823 20.4414 260.94 33.2591L261.116 51.5478L263.105 51.7823C264.275 51.9386 265.27 51.626 265.562 51.0007C266.381 49.2813 266.206 14.8923 265.387 13.7981C264.451 12.5476 262.286 12.6257 261.467 13.9544Z" fill="#085E41"/>
<path d="M282.294 13.7981C280.246 15.9083 271.003 48.1871 271.705 50.6881C271.997 51.626 272.641 51.9386 273.928 51.7823C275.391 51.626 275.976 50.9226 276.912 48.2652C277.555 46.4676 278.55 44.7482 279.135 44.4355C279.72 44.2011 282.118 44.2792 284.517 44.5137L288.905 45.0608L290.075 48.5779C291.128 51.7823 291.362 52.0168 293.117 51.7823C294.931 51.5478 295.048 51.3915 294.989 48.4215C294.931 45.6861 292.122 35.4475 287.033 19.1128C285.336 13.7199 284.927 12.8602 283.991 12.8602C283.581 12.8602 282.82 13.3292 282.294 13.7981ZM285.395 32.3994C286.155 35.0567 286.565 37.3233 286.389 37.5578C286.272 37.7922 284.81 37.8704 283.171 37.7141L280.246 37.4796L281.767 32.5557C282.586 29.8984 283.464 27.71 283.698 27.71C283.874 27.71 284.693 29.8202 285.395 32.3994Z" fill="#085E41"/>
<defs>
<clipPath id="clip0_509_1355">
<rect width="40" height="40" fill="white" transform="matrix(1 0 0 -1 65 52)"/>
</clipPath>
</defs>
</svg>
