<svg width="360" height="64" viewBox="0 0 360 64" fill="none" xmlns="http://www.w3.org/2000/svg">
<g clip-path="url(#clip0_1338_19584)">
<path d="M82.786 12.0837C82.6225 12.118 81.0475 12.5307 79.2941 12.9949C74.3907 14.3015 72.0579 14.8517 68.7592 15.505C67.0802 15.8317 65.6983 16.0895 65.6686 16.0895C65.6389 16.0895 65.624 16.2099 65.624 16.3474C65.624 16.7944 66.6344 16.846 71.4189 16.6397C76.1143 16.4334 78.0906 16.2271 81.4932 15.5566C82.4888 15.3503 83.41 15.2471 83.5289 15.2987C83.6626 15.3503 83.7518 15.6253 83.7518 16.0036V16.6053H84.6433H85.5348V15.1783C85.5348 13.4591 85.2525 12.7886 84.3016 12.3072C83.6923 11.9805 83.3654 11.9289 82.786 12.0837Z" fill="#42F0B6"/>
<path d="M65.1189 18.6857C65 18.892 64.9703 23.1901 65.0297 34.8811L65.104 50.8187L65.5944 51.3689L66.0698 51.9362L81.3447 51.9878C92.7266 52.0222 96.8276 51.9878 97.4666 51.8331C98.477 51.5924 99.4576 50.9219 99.9926 50.0966C100.736 48.9791 100.84 48.3086 100.84 44.6122V41.208L97.3923 41.1565C94.6434 41.1049 93.7964 41.0361 93.2912 40.8126C91.7311 40.1421 90.8098 38.9042 90.2749 36.8239C89.5914 34.1762 90.7058 31.4254 92.9792 30.136L93.8113 29.6718H97.3328H100.854L100.81 25.6659C100.765 22.1242 100.736 21.6084 100.483 21.0067C100.097 20.0955 99.3982 19.339 98.5215 18.8232L97.7935 18.4106H81.5379C66.7533 18.4106 65.2823 18.4278 65.1189 18.6857Z" fill="#42F0B6"/>
<path d="M95.1931 31.3911C93.8112 31.5115 93.2911 31.735 92.5631 32.629C91.2555 34.2107 91.3149 36.9616 92.6968 38.4573C93.618 39.4545 93.6775 39.4717 99.205 39.4717H104.272L104.628 39.0419C105 38.6292 105 38.5949 105 35.4658V32.3024L104.614 31.8381C104.168 31.3396 104.524 31.3739 99.205 31.3224C97.6894 31.3224 95.8914 31.3396 95.1931 31.3911ZM96.6047 33.2651C97.2436 33.6778 97.6002 34.5546 97.5259 35.569C97.4516 36.5489 97.095 37.1851 96.3075 37.6836C94.5542 38.8356 92.5036 36.5145 93.306 34.2795C93.7963 32.9213 95.3565 32.4399 96.6047 33.2651Z" fill="#42F0B6"/>
</g>
<path d="M175.409 13.7201C169.5 17.2372 166.4 23.646 166.4 32.0088C166.4 38.105 167.277 41.2313 170.378 45.5299C173.303 49.7504 176.287 51.3917 181.552 51.7825C185.764 52.0169 186.525 51.8606 189.45 49.8285C192.199 47.9528 192.667 47.3275 192.843 45.1391C193.018 43.0289 192.784 42.56 191.614 42.1692C190.737 41.8565 189.333 42.2473 187.929 43.1852C184.594 45.4518 182.254 45.9207 179.387 44.9047C175.994 43.6542 172.191 38.3395 171.606 34.1972C170.846 28.0228 174.531 20.9887 179.329 19.1911C182.429 18.0187 183.307 18.0969 186.525 19.9727C189.684 21.7703 191.673 21.6921 192.609 19.7382C193.486 17.7843 192.55 15.9867 189.45 13.7983C185.94 11.4536 179.212 11.3754 175.409 13.7201Z" fill="#42F0B6"/>
<path d="M117.14 13.8762C117.023 14.4233 116.964 23.0987 117.023 33.1809L117.198 51.5477L118.837 51.7822C121.118 52.173 122.171 50.688 122.171 47.3273C122.23 44.6699 122.464 44.2792 127.846 39.4334C135.042 32.9464 136.446 30.2891 136.095 23.8021C135.802 18.5656 134.398 15.8301 131.122 13.9543C128.607 12.4694 117.549 12.4694 117.14 13.8762ZM128.08 19.8942C129.66 20.5195 130.42 21.3792 130.947 23.0987C131.649 25.2871 131.59 25.5997 129.718 28.1789C128.607 29.742 126.5 32.1649 124.979 33.6498L122.171 36.3072V28.257C122.171 23.8021 122.347 19.8942 122.581 19.6598C123.107 18.8782 125.681 19.0345 128.08 19.8942Z" fill="#42F0B6"/>
<path d="M142.764 13.7981C141.828 15.0486 141.77 50.7662 142.706 51.5478C143.7 52.4075 159.204 51.9386 160.023 51.0007C160.432 50.5318 160.783 49.3594 160.783 48.3434C160.783 46.0768 159.906 45.7642 152.593 45.4516L147.035 45.2953V40.6059V35.9165L152.885 35.5257C158.677 35.1349 158.736 35.1349 158.911 33.1028C159.204 30.0547 157.975 29.3513 152.242 29.1168L147.035 28.8824V24.193V19.5035L153.119 19.2691C156.571 19.1909 159.613 18.6438 160.023 18.1749C160.491 17.7059 160.783 16.3773 160.666 15.2831L160.491 13.251L152.008 13.0165C145.865 12.8602 143.291 13.0947 142.764 13.7981Z" fill="#42F0B6"/>
<path d="M200.448 13.7198C199.512 14.4232 199.395 15.9081 199.395 27.3972C199.395 41.6999 199.922 44.279 203.432 48.265C209.282 54.8302 219.696 52.251 223.206 43.4193C224.434 40.2149 224.551 39.0425 224.551 27.319C224.551 14.5013 224.259 12.86 222.211 12.86C219.813 12.9382 219.579 13.9542 219.286 26.6938C218.994 37.9483 218.877 39.277 217.648 41.5436C215.074 46.4674 209.165 46.4674 206.181 41.6999C204.719 39.3552 204.66 39.0425 204.66 27.319C204.66 17.4713 204.485 15.1266 203.724 14.1105C202.671 12.7037 201.852 12.5474 200.448 13.7198Z" fill="#42F0B6"/>
<path d="M231.396 13.3289C230.636 14.345 230.928 49.9844 231.689 51.0005C232.742 52.4073 234.965 52.0947 235.667 50.4534C235.96 49.5937 236.252 43.9664 236.252 37.792V26.6937L238.943 31.305C240.464 33.806 243.038 38.5736 244.794 41.778C246.49 44.9824 248.421 48.4213 249.123 49.4374C250.585 51.4694 252.984 51.7039 253.627 49.8281C253.862 49.0466 253.979 40.5275 253.803 30.836L253.51 13.2508L251.814 13.0163C250.878 12.86 249.825 13.1726 249.474 13.6416C249.123 14.1105 248.713 18.8781 248.538 25.4432L248.245 36.3852L241.81 24.818C236.252 14.8139 235.141 13.2508 233.619 13.0163C232.625 12.86 231.63 13.0163 231.396 13.3289Z" fill="#42F0B6"/>
<path d="M261.467 13.9546C260.999 14.658 260.823 20.4416 260.94 33.2593L261.116 51.548L263.105 51.7824C264.275 51.9387 265.27 51.6261 265.562 51.0009C266.381 49.2814 266.206 14.8924 265.387 13.7982C264.451 12.5477 262.286 12.6259 261.467 13.9546Z" fill="#42F0B6"/>
<path d="M282.294 13.7983C280.246 15.9085 271.003 48.1873 271.705 50.6883C271.997 51.6262 272.641 51.9388 273.928 51.7825C275.391 51.6262 275.976 50.9228 276.912 48.2654C277.555 46.4678 278.55 44.7484 279.135 44.4357C279.72 44.2013 282.118 44.2794 284.517 44.5139L288.905 45.061L290.075 48.5781C291.128 51.7825 291.362 52.0169 293.117 51.7825C294.931 51.548 295.048 51.3917 294.989 48.4217C294.931 45.6863 292.122 35.4477 287.033 19.113C285.336 13.7201 284.927 12.8604 283.991 12.8604C283.581 12.8604 282.82 13.3294 282.294 13.7983ZM285.395 32.3996C286.155 35.0569 286.565 37.3235 286.389 37.558C286.272 37.7924 284.81 37.8706 283.171 37.7143L280.246 37.4798L281.767 32.5559C282.586 29.8986 283.464 27.7102 283.698 27.7102C283.874 27.7102 284.693 29.8204 285.395 32.3996Z" fill="#42F0B6"/>
<defs>
<clipPath id="clip0_1338_19584">
<rect width="40" height="40" fill="white" transform="matrix(1 0 0 -1 65 52)"/>
</clipPath>
</defs>
</svg>
