<svg width="40" height="40" viewBox="0 0 40 40" fill="none" xmlns="http://www.w3.org/2000/svg">
<g clip-path="url(#clip0_728_633)">
<path d="M17.786 0.0836569C17.6225 0.118042 16.0475 0.530665 14.2941 0.994867C9.39071 2.30151 7.05787 2.85167 3.75921 3.50499C2.08016 3.83165 0.698287 4.08954 0.668569 4.08954C0.638852 4.08954 0.623993 4.20989 0.623993 4.34743C0.623993 4.79444 1.63439 4.84602 6.41894 4.63971C11.1143 4.4334 13.0906 4.22708 16.4932 3.55657C17.4888 3.35026 18.41 3.2471 18.5289 3.29868C18.6626 3.35026 18.7518 3.62534 18.7518 4.00358V4.60532H19.6433H20.5348V3.17833C20.5348 1.45907 20.2525 0.788555 19.3016 0.307161C18.6923 -0.019499 18.3654 -0.071077 17.786 0.0836569Z" fill="#42F0B6"/>
<path d="M0.118871 6.68568C0 6.89199 -0.0297177 11.1901 0.0297177 22.8811L0.104012 38.8187L0.594354 39.3689L1.06984 39.9362L16.3447 39.9878C27.7266 40.0222 31.8276 39.9878 32.4666 39.8331C33.477 39.5924 34.4577 38.9219 34.9926 38.0966C35.7355 36.9791 35.8395 36.3086 35.8395 32.6122V29.208L32.3923 29.1565C29.6434 29.1049 28.7964 29.0361 28.2912 28.8126C26.7311 28.1421 25.8098 26.9042 25.2749 24.8239C24.5914 22.1762 25.7058 19.4254 27.9792 18.136L28.8113 17.6718H32.3328H35.8544L35.8098 13.6659C35.7652 10.1242 35.7355 9.60842 35.4829 9.00668C35.0966 8.09547 34.3982 7.339 33.5215 6.82322L32.7935 6.41059H16.5379C1.75334 6.41059 0.282318 6.42779 0.118871 6.68568Z" fill="#42F0B6"/>
<path d="M30.1931 19.391C28.8112 19.5114 28.2911 19.7349 27.5631 20.6289C26.2555 22.2106 26.3149 24.9614 27.6968 26.4572C28.618 27.4544 28.6775 27.4716 34.205 27.4716H39.2718L39.6284 27.0417C39.9999 26.6291 39.9999 26.5947 39.9999 23.4657V20.3022L39.6136 19.838C39.1678 19.3394 39.5244 19.3738 34.205 19.3222C32.6894 19.3222 30.8914 19.3394 30.1931 19.391ZM31.6047 21.265C32.2436 21.6776 32.6002 22.5545 32.5259 23.5688C32.4516 24.5488 32.095 25.1849 31.3075 25.6835C29.5542 26.8354 27.5036 24.5144 28.306 22.2794C28.7963 20.9212 30.3565 20.4398 31.6047 21.265Z" fill="#42F0B6"/>
</g>
<defs>
<clipPath id="clip0_728_633">
<rect width="40" height="40" fill="white" transform="matrix(1 0 0 -1 0 40)"/>
</clipPath>
</defs>
</svg>
